<?xml version="1.0" encoding="utf-8"?>
<!-- Generator: Adobe Illustrator 25.0.1, SVG Export Plug-In . SVG Version: 6.00 Build 0)  -->
<svg version="1.1" id="Layer_1" xmlns="http://www.w3.org/2000/svg" xmlns:xlink="http://www.w3.org/1999/xlink" x="0px" y="0px"
	 viewBox="0 0 32 32" style="enable-background:new 0 0 32 32;" xml:space="preserve">
<style type="text/css">
	.st0{fill:#7C5AF3;}
</style>
<path id="Icon_awesome-user-edit" class="st0" d="M11.8,16c3.3,0,6-2.7,6-6s-2.7-6-6-6s-6,2.7-6,6S8.5,16,11.8,16z M16,17.5h-0.8
	c-2.2,1-4.7,1-6.8,0H7.6c-3.5,0-6.3,2.8-6.3,6.3v2c0,1.2,1,2.2,2.3,2.3h12.9c-0.1-0.3-0.2-0.7-0.1-1l0.3-2.9l0.1-0.5l0.4-0.4
	l3.6-3.6C19.5,18.3,17.8,17.5,16,17.5z M18.2,24.3l-0.3,2.9c0,0.4,0.2,0.8,0.7,0.8c0.1,0,0.1,0,0.2,0l2.9-0.3l6.5-6.5l-3.4-3.4
	L18.2,24.3L18.2,24.3z M31,16.6l-1.8-1.8c-0.4-0.4-1.1-0.4-1.6,0l-1.8,1.8l-0.2,0.2l3.4,3.4l2-2C31.4,17.8,31.4,17,31,16.6L31,16.6z
	"/>
</svg>
