<?xml version="1.0" encoding="utf-8"?>
<!-- Generator: Adobe Illustrator 25.0.1, SVG Export Plug-In . SVG Version: 6.00 Build 0)  -->
<svg version="1.1" id="Layer_1" xmlns="http://www.w3.org/2000/svg" xmlns:xlink="http://www.w3.org/1999/xlink" x="0px" y="0px"
	 viewBox="0 0 32 32" style="enable-background:new 0 0 32 32;" xml:space="preserve">
<style type="text/css">
	.st0{fill:#7C5AF3;}
</style>
<path id="Icon_awesome-qrcode" class="st0" d="M1,13.9h12.9V1H1V13.9z M5.3,5.3h4.3v4.3H5.3V5.3z M18.1,1v12.9H31V1H18.1z M26.7,9.6
	h-4.3V5.3h4.3L26.7,9.6z M1,31h12.9V18.1H1V31z M5.3,22.4h4.3v4.3H5.3V22.4z M28.9,18.1H31v8.6h-6.4v-2.1h-2.1V31h-4.3V18.1h6.4v2.1
	h4.3L28.9,18.1z M28.9,28.9H31V31h-2.1L28.9,28.9z M24.6,28.9h2.1V31h-2.1V28.9z"/>
</svg>
