<?xml version="1.0" encoding="utf-8"?>
<!-- Generator: Adobe Illustrator 25.0.1, SVG Export Plug-In . SVG Version: 6.00 Build 0)  -->
<svg version="1.1" id="Layer_1" xmlns="http://www.w3.org/2000/svg" xmlns:xlink="http://www.w3.org/1999/xlink" x="0px" y="0px"
	 viewBox="0 0 32 32" style="enable-background:new 0 0 32 32;" xml:space="preserve">
<style type="text/css">
	.st0{fill:#7C5AF3;}
</style>
<path id="Icon_material-history" class="st0" d="M18,2.1c-7.5,0-13.5,6-13.5,13.5H0l5.8,5.8l0.1,0.2l6.1-6H7.5C7.5,9.7,12.2,5,18,5
	s10.6,4.7,10.6,10.5c0,5.8-4.7,10.6-10.5,10.6c-2.8,0-5.5-1.1-7.5-3.1l-2.1,2.1c5.3,5.3,13.8,5.3,19.1,0s5.3-13.8,0-19.1
	C25,3.5,21.6,2.1,18,2.1z M16.5,9.6v7.5l6.4,3.8L24,19l-5.3-3.1V9.6H16.5z"/>
</svg>
