<?xml version="1.0" encoding="utf-8"?>
<!-- Generator: Adobe Illustrator 25.0.1, SVG Export Plug-In . SVG Version: 6.00 Build 0)  -->
<svg version="1.1" id="Layer_1" xmlns="http://www.w3.org/2000/svg" xmlns:xlink="http://www.w3.org/1999/xlink" x="0px" y="0px"
	 viewBox="0 0 20.6 20.6" style="enable-background:new 0 0 20.6 20.6;" xml:space="preserve">
<style type="text/css">
	.st0{fill:#FFFFFF;}
</style>
<g id="home" transform="translate(73.02 -3.828)">
	<g id="Layer_2_1_" transform="translate(-73.02 3.828)">
		<path id="Path_204" class="st0" d="M9.9,2.2c0.4,0,0.8,0.1,1.1,0.3L17.8,7c0.7,0.5,1.1,1.3,1.1,2.1v8.5c0,0.7-0.6,1.4-1.3,1.4
			c0,0,0,0,0,0H3.1c-0.7,0-1.4-0.6-1.4-1.3c0,0,0,0,0,0V9c0.1-0.8,0.5-1.6,1.1-2.1l5.9-4.3C9,2.3,9.4,2.2,9.9,2.2 M9.8,0.6L9.8,0.6
			c-0.7,0-1.5,0.2-2.1,0.7L1.9,5.5C0.8,6.4,0.1,7.6,0.1,9v8.7c0,1.6,1.3,2.9,2.9,3c0,0,0,0,0,0h14.5c1.6,0,2.9-1.3,2.9-2.9l0,0V9.1
			c0-1.4-0.7-2.6-1.8-3.4l-6.9-4.5C11.2,0.8,10.6,0.6,9.8,0.6L9.8,0.6z"/>
	</g>
</g>
</svg>
