<?xml version="1.0" encoding="utf-8"?>
<!-- Generator: Adobe Illustrator 25.0.1, SVG Export Plug-In . SVG Version: 6.00 Build 0)  -->
<svg version="1.1" id="Layer_1" xmlns="http://www.w3.org/2000/svg" xmlns:xlink="http://www.w3.org/1999/xlink" x="0px" y="0px"
	 viewBox="0 0 20.6 21.6" style="enable-background:new 0 0 20.6 21.6;" xml:space="preserve">
<style type="text/css">
	.st0{fill:#FFFFFF;}
</style>
<g id="Layer_1_1_" transform="translate(-0.28 -0.02)">
	<path id="Path_205" class="st0" d="M19.1,21.2c-0.4,0-0.7-0.3-0.7-0.7c0,0,0,0,0,0v-4.2c0-1.2-1-2.2-2.2-2.2H5.3
		c-1.2,0-2.2,1-2.2,2.2v4.2c0,0.4-0.3,0.7-0.7,0.7c0,0,0,0,0,0c-0.4,0-0.7-0.3-0.7-0.7c0,0,0,0,0,0v-4.2c0-2,1.6-3.6,3.6-3.6
		c0,0,0,0,0,0h10.9c2,0,3.6,1.6,3.6,3.6c0,0,0,0,0,0v4.2C19.8,20.9,19.5,21.2,19.1,21.2C19.1,21.2,19.1,21.2,19.1,21.2z"/>
	<path id="Path_206" class="st0" d="M10.7,9.9c-2.6,0-4.6-2.1-4.6-4.6s2.1-4.6,4.6-4.6c2.6,0,4.6,2.1,4.6,4.6
		C15.4,7.8,13.3,9.9,10.7,9.9z M10.7,2.1C9,2.1,7.6,3.5,7.6,5.2S9,8.4,10.7,8.4c1.8,0,3.2-1.4,3.2-3.2c0,0,0,0,0,0
		C13.9,3.5,12.5,2.1,10.7,2.1L10.7,2.1z"/>
</g>
</svg>
