<?xml version="1.0" standalone="no"?>
<!DOCTYPE svg PUBLIC "-//W3C//DTD SVG 20010904//EN"
 "http://www.w3.org/TR/2001/REC-SVG-20010904/DTD/svg10.dtd">
<svg version="1.0" xmlns="http://www.w3.org/2000/svg"
 width="322.000000pt" height="322.000000pt" viewBox="0 0 322.000000 322.000000"
 preserveAspectRatio="xMidYMid meet">
<metadata>
Created by potrace 1.11, written by Peter Selinger 2001-2013
</metadata>
<g transform="translate(0.000000,322.000000) scale(0.100000,-0.100000)"
fill="#000000" stroke="none">
<path d="M612 3199 c-236 -40 -441 -200 -544 -427 -59 -129 -58 -109 -58
-1173 0 -938 1 -979 20 -1053 32 -126 91 -228 190 -326 97 -97 163 -139 287
-184 l88 -31 1015 0 1015 0 77 26 c124 43 204 93 298 188 99 99 158 202 190
327 19 74 20 115 20 1059 0 944 -1 985 -20 1059 -55 216 -223 407 -431 492
-129 53 -139 53 -1154 52 -517 0 -964 -4 -993 -9z m148 -874 l0 -155 185 0
185 0 0 155 0 155 50 0 50 0 0 -385 0 -385 -50 0 -50 0 0 185 0 185 -185 0
-185 0 0 -185 0 -185 -50 0 -50 0 0 385 0 385 50 0 50 0 0 -155z m916 -149
c150 -70 192 -263 85 -387 -122 -143 -365 -105 -437 67 -21 51 -18 150 7 201
24 50 95 116 141 130 61 20 148 15 204 -11z m518 11 c17 -13 17 -15 -3 -55
-19 -37 -24 -41 -41 -32 -46 24 -102 3 -126 -49 -13 -27 -18 -73 -22 -188 l-5
-153 -43 0 -44 0 0 240 0 240 45 0 45 0 0 -37 0 -37 28 31 c15 17 36 36 47 42
28 15 98 14 119 -2z m361 -6 c78 -36 125 -114 125 -207 l0 -44 -180 0 c-132 0
-180 -3 -180 -12 0 -24 43 -99 62 -109 72 -38 143 -28 194 28 l33 35 35 -22
c20 -12 36 -25 36 -29 0 -14 -70 -80 -103 -98 -23 -12 -56 -18 -113 -18 -72 0
-85 3 -129 30 -72 44 -105 112 -105 214 0 119 50 204 140 240 42 17 141 12
185 -8z m-1557 -850 c19 -10 22 -20 22 -73 0 -57 -1 -60 -17 -46 -83 72 -201
61 -253 -24 -53 -86 -24 -189 64 -235 44 -23 126 -13 170 21 l36 27 0 -61 c0
-57 -2 -61 -27 -72 -51 -20 -150 -22 -200 -3 -59 23 -121 79 -144 130 -23 50
-25 152 -3 203 21 51 70 100 129 129 43 20 61 23 125 20 41 -2 85 -9 98 -16z
m438 -5 c59 -27 116 -90 132 -145 51 -169 -68 -331 -243 -331 -144 0 -255 109
-255 250 0 141 111 250 255 250 42 0 75 -7 111 -24z m550 8 c18 -9 44 -33 56
-53 21 -34 23 -49 26 -228 l4 -193 -45 0 -44 0 -5 173 c-3 126 -8 178 -19 195
-29 46 -132 48 -173 3 -23 -25 -36 -119 -36 -258 l0 -113 -45 0 -45 0 0 240 0
240 45 0 c44 0 45 -1 45 -32 l0 -32 28 26 c15 14 36 30 47 36 30 17 122 14
161 -4z m487 0 c18 -9 44 -28 60 -42 l27 -26 0 37 0 37 45 0 45 0 0 -240 0
-240 -45 0 -45 0 0 37 0 37 -27 -26 c-113 -105 -295 -58 -348 91 -21 60 -19
166 4 216 20 44 69 94 116 118 39 21 127 21 168 1z"/>
<path d="M1505 2096 c-42 -19 -81 -64 -92 -106 -30 -116 82 -226 196 -192 47
14 96 66 109 115 33 120 -99 234 -213 183z"/>
<path d="M2400 2102 c-34 -18 -81 -85 -69 -97 4 -3 63 -4 132 -3 l126 3 -18
41 c-30 67 -104 91 -171 56z"/>
<path d="M1265 1246 c-72 -32 -112 -112 -93 -185 13 -51 73 -107 123 -117 78
-14 162 41 183 119 33 120 -99 234 -213 183z"/>
<path d="M2372 1263 c-37 -7 -89 -65 -102 -112 -30 -111 37 -215 139 -215 58
0 103 26 130 74 42 75 18 194 -46 232 -32 18 -87 28 -121 21z"/>
</g>
</svg>
