<?xml version="1.0" encoding="utf-8"?>
<!-- Generator: Adobe Illustrator 25.0.1, SVG Export Plug-In . SVG Version: 6.00 Build 0)  -->
<svg version="1.1" id="Layer_1" xmlns="http://www.w3.org/2000/svg" xmlns:xlink="http://www.w3.org/1999/xlink" x="0px" y="0px"
	 viewBox="0 0 32 32" style="enable-background:new 0 0 32 32;" xml:space="preserve">
<style type="text/css">
	.st0{fill:#7C5AF3;}
</style>
<path id="Icon_material-group" class="st0" d="M21.5,13.9c2.4-0.1,4.2-2.1,4.1-4.5C25.6,7,23.8,5,21.5,4.9C19.1,5,17.3,7,17.4,9.4
	c0,0,0,0,0,0C17.3,11.8,19.1,13.8,21.5,13.9C21.5,13.9,21.5,13.9,21.5,13.9z M10.5,13.9c2.4-0.1,4.2-2.1,4.1-4.5
	C14.7,7,12.9,5,10.5,4.9C8.2,5,6.3,7,6.5,9.4c0,0,0,0,0,0C6.3,11.8,8.2,13.8,10.5,13.9L10.5,13.9z M10.5,16.9
	c-3.2,0-9.5,1.8-9.5,5.3v3.8h19.1v-3.8C20.1,18.7,13.7,16.9,10.5,16.9L10.5,16.9z M21.5,16.9c-0.4,0-0.8,0-1.3,0.1
	c1.7,1.2,2.7,3.1,2.7,5.2v3.8H31v-3.8C31,18.7,24.6,16.9,21.5,16.9z"/>
</svg>
