<?xml version="1.0" encoding="utf-8"?>
<!-- Generator: Adobe Illustrator 25.0.1, SVG Export Plug-In . SVG Version: 6.00 Build 0)  -->
<svg version="1.1" id="Layer_1" xmlns="http://www.w3.org/2000/svg" xmlns:xlink="http://www.w3.org/1999/xlink" x="0px" y="0px"
	 viewBox="0 0 461.3 316.3" style="enable-background:new 0 0 461.3 316.3;" xml:space="preserve">
<style type="text/css">
	.st0{fill:#3C8F7C;}
	.st1{fill:#50BFA5;}
	.st2{fill:#184655;}
	.st3{fill:#F7CC7F;}
	.st4{fill:#F48C7F;}
	.st5{fill:#96D9C9;}
	.st6{fill:#964F3F;}
	.st7{fill:#F7A491;}
	.st8{fill:#FAE0B2;}
	.st9{fill:#F47458;}
	.st10{fill:#355389;}
	.st11{fill:#466EB6;}
	.st12{fill:#13375B;}
	.st13{fill:#B75742;}
	.st14{fill:#9BC1F9;}
	.st15{fill:#B35E4B;}
	.st16{fill:#944A38;}
	.st17{fill:#F79C8D;}
</style>
<path id="Path_2" class="st0" d="M325.7,151.5c11.6,0.1,23.1-0.8,34.5-2.7l0,0c7.2-1.2,13.7,4.6,13,11.7l-12.2,73.1l-35.2-5.5V151.5
	z"/>
<path id="Path_3" class="st1" d="M272.9,222l78-1.2l6.8-60.2c0.7-7.1-7.8-11.3-11.9-11.7c-20-1.8-39.9,3.6-59.7,0.1l-1.8-0.3
	c-6.2-1.1-11.9,4-11.9,10.7L272.9,222z"/>
<g id="Group_5" transform="translate(223.529 216.523)">
	<g id="Group_1" transform="translate(10.978 21.117)">
		<path id="Path_4" class="st0" d="M5.7,78.7L30.3,2.1L25.4,0L0,78.7L5.7,78.7z"/>
	</g>
	<g id="Group_2" transform="translate(112.421 16.819)">
		<path id="Path_5" class="st0" d="M31.7,83L4.9,0L0,2.1L25.1,83H31.7z"/>
	</g>
	<path id="Path_6" class="st0" d="M126.4,1.8L56.7,3c-6,0-11.4,3.8-11.4,10.8v3.7c0,7,4.9,12.6,10.9,12.6h70.4
		c6,0,10.9-5.7,10.9-12.6v-3.7C137.5,6.8,132.4,1.8,126.4,1.8z"/>
	<g id="Group_3" transform="translate(96.16 20.024)">
		<path id="Path_7" class="st0" d="M31.7,79.8L4.9,0L0,2l25.9,77.8L31.7,79.8z"/>
	</g>
	<g id="Group_4" transform="translate(0 19.477)">
		<path id="Path_8" class="st0" d="M5.6,80.3L31,2l-4.9-2L0,80.3H5.6z"/>
	</g>
	<path id="Path_9" class="st1" d="M106.1,2.1L25.6,0c-7.2,0-16,7.6-16,14.3v3.6c0,6.7,5.8,12.2,13,12.2h83.6c7.2,0,13-5.5,13-12.2
		v-3.6C119.1,7.6,113.3,2.1,106.1,2.1z"/>
</g>
<path id="Path_10" class="st2" d="M209.6,216.9l4.7,96.3h-3.9l-12.8-97.4L209.6,216.9z"/>
<path id="Path_11" class="st3" d="M201.4,48.5l0.2-5.7l-4.6-3.4c-0.3-0.3-0.4-0.8-0.2-1.1c0.1-0.1,0.2-0.2,0.4-0.3l5.5-1.6l1.8-5.4
	c0.1-0.4,0.6-0.6,1-0.5c0.2,0.1,0.3,0.2,0.4,0.3l3.2,4.8l5.7,0.1c0.4,0,0.8,0.4,0.8,0.8c0,0.2-0.1,0.3-0.2,0.5l-3.5,4.5l1.7,5.5
	c0.1,0.4-0.1,0.9-0.5,1c-0.2,0.1-0.3,0-0.5,0l-5.4-2l-4.7,3.3c-0.4,0.3-0.8,0.2-1.1-0.2C201.4,48.9,201.4,48.7,201.4,48.5z"/>
<path id="Path_12" class="st4" d="M91.5,91l6.7-0.2l2.9-7l9.1,1.1l1.3-4.9l2,0.6l-1.7,6.4l-9.3-1.1l-2.8,6.8l-8.1,0.2L91.5,91z"/>
<path id="Path_13" class="st1" d="M335.9,44.1l-2.6,5l-8.5-3.3l-4.7,6.8l-6.7-1.5l-0.7,3.4l9,1.9l4.5-6.4l8.8,3.5l3.9-7.5
	L335.9,44.1z"/>
<path id="Path_14" class="st5" d="M147.6,5.3l1.7,4.9l5.3,0.5l1.5,5.6l5.8-1.2l2,6.3l5.5-0.4l2.9,5.7l-2.2,1.1l-2.2-4.3l-5.8,0.5
	l-2-6l-5.9,1.2l-1.7-6.2l-5.2-0.5L146,7.9l-3.5,0.4l-0.3-2.4L147.6,5.3z"/>
<g id="Group_14" transform="translate(58.121 76.962)">
	<path id="Path_16" class="st6" d="M191.9,64.2c0,0-6.2,28.2-11.2,31.1s-32.9,14.3-32.9,14.3l-13.1,2.6l-4.2,3c0,0,7.5,4.2,10.3,4.1
		c3.1,0,6.1-2.5,11.1-3.6c12.9-2.9,36.5-7.3,39.2-10c3.7-3.7,14.7-33,14.7-33L191.9,64.2z"/>
	<g id="Group_8" transform="translate(96.865 46.097)">
		<path id="Path_17" class="st7" d="M32.6,17.5L25.7,37c-4.1-8.8-7.4-17.9-9.9-27.2c-5.4,1.9-10.4,4.8-14.7,8.7
			C6.7,32,17.2,54.2,25.5,55.4c6.4,0.9,13-30.7,13-30.7L32.6,17.5z"/>
		<path id="Path_18" class="st7" d="M35.9,6.3c0.8-0.8,2.8-1.8,3.7-0.9s0.6,2.4,1.1,3.1c0.6,0.9,1.1,1.8,1.4,2.8
			c0.1,0.3,0.7,2.5,0.9,3.1s-4.6,10.1-4.6,10.1l-7-3.6C31.5,21.1,35.1,7.1,35.9,6.3z"/>
		<path id="Path_19" class="st8" d="M13.4,2.5c0,0,5,13.1,6.2,17.3c1.3,4.1,3.8,10.1,3.8,10.1L9.7,38.8L0,18.3L13.4,2.5z"/>
		<path id="Path_20" class="st9" d="M36.8,7.9v0.4c0,1.1-0.2,2.2-0.4,3.2c-0.3,1.2-0.6,2.8-0.1,3.4c0.9,0.9,1.6-1.1,1.6-1.1
			s-1.7,1.8-1.3,2.6c0.5,1,2,0,2,0s-1,1.4,0,1.7s3-3,3-3l1.2-1.7l-4.8-5.8L36.8,7.9z"/>
		<g id="Group_7" transform="translate(37.826 1.915)">
			<path id="Path_21" class="st8" d="M4.1,13.6L7,13.6l-0.7-2.7L4,10.9c-1.1,0-1.9-1.2-2-2.6L1.9,5.6C1.9,4.1,2.7,2.8,3.7,2.8
				l2.9-0.1L6.5,0L3.6,0.1C1.5,0.2-0.1,2.7,0,5.6l0.1,2.7C0.2,11.3,2,13.7,4.1,13.6z"/>
		</g>
		<path id="Path_22" class="st8" d="M58.4,1.6L58.8,14c0.1,2.8-2.1,5.2-5,5.3l-4.4,0.2c-2.8,0.1-5.2-2.1-5.3-5c0,0,0,0,0,0l-0.5-14
			L58.3,0L58.4,1.6z"/>
		<path id="Path_23" class="st7" d="M39.9,6.2c0,0-4.1,6.3-3.6,7.4S41.1,9,41.1,9S41,6,39.9,6.2z"/>
		<path id="Path_24" class="st7" d="M42.3,10.7c0,0-4.3,5.9-5,5.4c-1.1-0.8,3.6-7.3,3.6-7.3S42.3,8.5,42.3,10.7z"/>
		<path id="Path_25" class="st7" d="M43.1,12.8c0,0-3.7,4.8-4.6,3.9s3.9-6.1,3.9-6.1S43.7,11.9,43.1,12.8z"/>
		<path id="Path_26" class="st7" d="M33.4,14.1c0,0-0.3-5,0.3-5.6s4.5-2.9,5.1-2.3s-3.3,4.4-3.3,4.4L33.4,14.1z"/>
	</g>
	<g id="Group_13">
		<g id="Group_9" transform="translate(57.552 159.433)">
			<path id="Path_27" class="st0" d="M0,76.8L27.6,0l5.2,2L6,76.8L0,76.8z"/>
		</g>
		<path id="Rectangle_3" class="st0" d="M68.9,146.8h71.6c7.4,0,13.3,6,13.3,13.3l0,0l0,0c0,7.4-6,13.3-13.3,13.3l0,0H68.9
			c-7.4,0-13.3-6-13.3-13.3c0,0,0,0,0,0l0,0C55.6,152.8,61.6,146.8,68.9,146.8C68.9,146.8,68.9,146.8,68.9,146.8z"/>
		<g id="Group_10" transform="translate(14.085 159.007)">
			<path id="Path_28" class="st0" d="M0,76.8L27.6,0l5.2,2L5.9,76.8H0z"/>
		</g>
		<g id="Group_11" transform="translate(98.235 160.575)">
			<path id="Path_29" class="st0" d="M27,75.6L0,2l5.2-2l27.9,75.6L27,75.6z"/>
		</g>
		<path id="Path_30" class="st1" d="M84.2,149H73.8l-27-74.5c-1-2.8-3.7-4.7-6.6-4.7L7.7,69.4c-5-0.1-9.7,7.1-6.9,16.2l20.7,61.1h0
			l5.7,18.3l60.8,0.6L84.2,149z"/>
		<path id="Path_31" class="st0" d="M95.5,149.7l-52.8-0.1L18.4,79.3c-1.4-3.8,0.6-8,4.4-9.3c0.8-0.3,1.6-0.4,2.4-0.4l35.2,0.4
			c3,0,5.6,1.9,6.6,4.7L95.5,149.7z"/>
		<path id="Path_32" class="st1" d="M120.1,146.8c0,0-35.8,7.1-45.6,5.5c-12.5-2-32.8-5.5-32.8-5.5c-6.9,0-15,5.2-15,11.7v3.4
			c0,6.4,5.6,11.6,12.5,11.6h80.9c6.9,0,12.5-5.2,12.5-11.6v-3.4C132.7,152,127.1,146.8,120.1,146.8z"/>
		<g id="Group_12" transform="translate(44.426)">
			<path id="Path_33" class="st7" d="M83.2,206.3c1.5,6.6,2,18.8,1.7,20.2c0,0.8,0.2,1.7,0.6,2.5c8.5,4.7,17.1,2.7,24,0.1
				c-4.8-1.7-11.2-3.8-12.1-4.4c-2.5-1.6-1.3-9.9-0.8-20.4C93.2,207.9,88.1,204.6,83.2,206.3z"/>
			<path id="Path_34" class="st10" d="M85,226.3c-1.3,3.2-1,9.8-0.3,9.9c0.8,0.1,29,1.3,32.9-1.5c2.4-1.7-2.1-3.5-8-5.7
				C102.6,231.6,85.4,228.4,85,226.3z"/>
			<path id="Path_35" class="st11" d="M43.5,115.3l0.6,8.3c0,0,58.3,8.1,59.2,18.8S98,218.2,98,218.2l-14.3,0.9
				c0,0-7.4-35.2-6.7-47.5c0.6-11.1,3.1-17.1,3.1-17.1s-62.7-3-66.7-4.8s-6.8-6.8-2.8-22.7s6.1-20,6.1-20L43.5,115.3z"/>
			<path id="Path_36" class="st12" d="M80.8,26.7c1.4-5.7,2.7-11.5-0.9-17.8C77,3.9,71.8,0.6,66,0.2C49.4-1.7,52.9,12.6,29.7,15.7
				c-7.2,1-13.9,1.9-20,5.2C-1.1,26.8-1.6,44,2,52c17,38.4,61.1,5.8,66.4-1.7C72.4,44.6,79.9,30.4,80.8,26.7z"/>
			<path id="Path_37" class="st3" d="M69.1,60.4c-0.5-5-3.3-11.9-3.3-11.9c-0.6-5-16.7-6.7-20.8-5.9C30.2,47.3,19.3,88.6,13,114
				l30.7,4.9c0,0,10.3-33.5,20.3-38.5C71,77,69.9,67.7,69.1,60.4z"/>
			<path id="Path_38" class="st7" d="M58.9,29.2c0,0-0.1,0.3-0.2,0.9c-0.6,2.8-2.3,11.1-3.8,13.7c-1.8,3.1,4,17,11.6,15.8
				c2.3-0.4-1.3-7.5-0.5-10.9c0.4-1.9,1.7-8,2.8-12.9c0.8-3.8,1.5-6.8,1.5-6.8L58.9,29.2z"/>
			<path id="Path_39" class="st9" d="M58.7,30.2c0.1-0.6,0.2-0.9,0.2-0.9L70.2,29c0,0-0.7,3.1-1.5,6.8l-0.9,4.1
				c-2-0.3-3.9-1.2-5.4-2.5c-1.8-1.5-3.3-3.4-4.1-5.6C58.5,31.2,58.6,30.6,58.7,30.2z"/>
			<path id="Path_40" class="st7" d="M65.7,4.5c-3.1,0.6-5.9,2.2-8,4.6c-3.4,4-7,16.3,1.4,23s16.6-0.9,17.8-8.9S77.8,4.2,65.7,4.5z"
				/>
			<path id="Path_41" class="st7" d="M79.5,20.3c-1,1.8-2.7,2.8-3.7,2.2s-1.1-2.5-0.1-4.2s2.7-2.8,3.7-2.2S80.5,18.6,79.5,20.3z"/>
			<path id="Path_42" class="st12" d="M67.1,4.3c0,0-7.1,11.7-12.3,12.2S49,23.3,49,23.3s1.8-14.3,6.9-17.1S67.1,4.3,67.1,4.3z"/>
			<path id="Path_43" class="st7" d="M56.5,19.3c0.4,2.1-0.4,4-1.9,4.3s-3-1.2-3.4-3.3s0.4-4,1.9-4.3S56.1,17.2,56.5,19.3z"/>
			<path id="Path_44" class="st7" d="M52,59.7c-1.6,15.3,1.8,36.9,1.8,36.9l31.4,10.3c0,0,5.4-2.1,7.1-1.4s5.5,1.7,4.9,2.7
				s-3.8-0.8-4.6-0.5s2.2,3.2,3.5,3.9s10.8-0.8,12.2-0.7c0.8,0.1,0,0.6-1.2,1.2c1.4-0.3,2.8-0.4,3.3,0c1.1,0.9-5.6,2.8-5.6,2.8
				s8.8-1.7,4.8,0.1c0,0-9.2,4.6-14.4,2.1c-2.7-1.4-5.5-2.6-8.4-3.6c-0.5-0.2-39.5-2.1-42.3-4.6c-6.6-6-9.5-32.1-9.9-47.1
				C40.1,59.8,46.1,59.1,52,59.7z"/>
			<path id="Path_45" class="st8" d="M54.8,54.8c-0.2-4.4-1.3-10.1-6-11.7c-3-1-6.2-0.5-8.7,1.4c-2.8,2.2-6.1,6.5-6.5,10.1
				c-0.8,7.6-0.6,15.2,0.8,22.7c5.4-2.7,12.9-1,19.1-1.6C53.5,75.6,55.1,60.6,54.8,54.8z"/>
		</g>
		<path id="Path_46" class="st7" d="M156.9,195.3c3.1,3.7,5.7,7.8,7.6,12.2c0.2,0.4,0.3,2.5,0.4,2.8c7.8,5.1,16,3.7,22.7,1.6
			c-4.4-1.9-10.6-4.1-11.2-5.1c-3.7-5.2-6.9-10.7-9.5-16.5C163.5,193.8,161.6,194,156.9,195.3z"/>
		<path id="Path_47" class="st10" d="M164.6,207.8c-0.7,3.1-0.4,10.6,0.2,10.7c0.7,0.2,26.7,2.8,30.1-0.5c2-2-1.8-3.6-7.2-6
			C180.9,214,164.8,209.9,164.6,207.8z"/>
		<path id="Path_48" class="st10" d="M170.1,194.2l-10.6,6.2c0,0-28.8-43.3-31.1-53.3c-2.1-9.1-10.1-13.2-10.1-13.2l-29.8-10.2
			c0,0,47.1,3.7,53.6,7.6C150.4,136.1,170.1,194.2,170.1,194.2z"/>
	</g>
</g>
<g id="Group_15" transform="translate(41.732 234.193)">
	<path id="Path_49" class="st0" d="M5.9,79L33.1,2l-5.2-2L0,79L5.9,79z"/>
</g>
<g id="Group_24" transform="translate(253.826 13.176)">
	<path id="Path_50" class="st7" d="M24.7,16c1.6-1.1,3.5-1.5,5.4-1c2.7,0.6,4.3,3.3,3.7,6c0,0.1,0,0.1,0,0.2
		c-0.8,3.1-4.4,6-12.1,7.5c-6.2-4.9-8-9.2-7.2-12.3c0.6-2.7,3.2-4.4,5.9-3.8c0.1,0,0.1,0,0.2,0C22.2,13,23.8,14.2,24.7,16z"/>
	<g id="Group_16" transform="translate(0 9.492)">
		<path id="Path_51" class="st7" d="M0.6,1.8c2.3,1,4.7,1.9,7.1,2.6c0.7,0.2,1.9,0.8,2.6,0.3c0.4-0.2,0.5-0.7,0.3-1
			c-0.4-0.8-1.5-0.9-2.3-1.1C6.2,2,3.7,1.1,1.2,0.1C0.7-0.1,0.2,0.2,0,0.6C-0.1,1.1,0.2,1.7,0.6,1.8L0.6,1.8z"/>
	</g>
	<g id="Group_17" transform="translate(35.573 26.534)">
		<path id="Path_52" class="st7" d="M0.6,1.8c1.1,0.3,2.1,0.7,3.2,1c1,0.4,2.1,0.7,3.3,0.8c0.4,0,0.8-0.3,0.8-0.8
			c0-0.3-0.1-0.5-0.3-0.7c-1-0.6-2-0.9-3.1-1.1C3.3,0.7,2.3,0.3,1.2,0C0.7-0.1,0.2,0.2,0,0.6C-0.1,1.1,0.1,1.6,0.6,1.8L0.6,1.8z"/>
	</g>
	<g id="Group_18" transform="translate(4.688 24.257)">
		<path id="Path_53" class="st7" d="M1.5,4c2-1.8,3.9-2,5.4-2.5C7.3,1.4,7.6,1,7.5,0.6C7.4,0.3,7.1,0.1,6.8,0C4.5-0.3,2,1.1,0.3,2.7
			C-0.1,3-0.1,3.6,0.3,4C0.6,4.3,1.2,4.4,1.5,4L1.5,4z"/>
	</g>
	<g id="Group_19" transform="translate(15.017 31.867)">
		<path id="Path_54" class="st7" d="M1.8,5.8c0.3-1.1,0.8-2.1,1.5-3c0.4-0.6,2.3-1.9,1.1-2.6C3.3-0.5,2.1,1.2,1.6,2
			C0.9,2.9,0.3,4.1,0,5.3C-0.3,6.4,1.5,7,1.8,5.8L1.8,5.8z"/>
	</g>
	<g id="Group_20" transform="translate(27.695 32.172)">
		<path id="Path_55" class="st7" d="M0.2,1.6l1.4,1.8C2.1,4,2.5,4.8,3.3,4.9c0.4,0,0.8-0.3,0.8-0.8c0.1-0.7-0.7-1.5-1.1-2L1.6,0.3
			C1.3-0.1,0.7-0.1,0.3,0.2C-0.1,0.6-0.1,1.2,0.2,1.6L0.2,1.6z"/>
	</g>
	<g id="Group_21" transform="translate(16.851)">
		<path id="Path_56" class="st7" d="M2.5,7.2C1.9,1,1.9,1,1.6,0.4C1.4,0,0.9-0.1,0.5,0.1C0.3,0.2,0.2,0.4,0.1,0.5
			c-0.2,0.7-0.2,0.6,0.5,7c0.1,0.5,0.6,0.8,1.1,0.7C2.2,8.2,2.6,7.7,2.5,7.2L2.5,7.2z"/>
	</g>
	<g id="Group_22" transform="translate(27.371 4.321)">
		<path id="Path_57" class="st7" d="M1.7,5.8C2.3,5,2.9,4.1,3.3,3.2c0.4-0.8,1.2-2.1,0.5-3C3.7,0,3.4,0,3.2,0C2.3,0.3,2,1.6,1.6,2.3
			C1.2,3.2,0.7,4,0.1,4.8c-0.3,0.4-0.1,1,0.3,1.3C0.9,6.3,1.4,6.2,1.7,5.8L1.7,5.8z"/>
	</g>
	<g id="Group_23" transform="translate(36.774 13.844)">
		<path id="Path_58" class="st7" d="M5.8,1.4C6,1,5.9,0.5,5.5,0.2C4.9-0.3,3.7,0.1,3,0.3C2.1,0.5,1.3,0.8,0.5,1.2
			C0,1.4-0.1,2,0.1,2.4C0.3,2.9,0.9,3,1.4,2.8C4.4,1.6,5.1,2.3,5.8,1.4z"/>
	</g>
</g>
<g id="Group_26" transform="translate(325.024 154.874)">
	<path id="Path_59" class="st8" d="M24.3,8.5c-0.1-1.1-1-1.9-2-1.9H9.2c-1.1,0-2,0.8-2,1.9l0,0.4h17.3L24.3,8.5z"/>
	<path id="Path_60" class="st3" d="M7.1,8.9L5,45.2h21.5L24.4,8.9H7.1z"/>
	<path id="Path_61" class="st3" d="M16.8,0.7c0-0.3-0.2-0.7-0.6-0.7c0,0-0.1,0-0.1,0h-0.8c-0.4,0-0.6,0.3-0.6,0.6c0,0,0,0.1,0,0.1v0
		L16.8,0.7L16.8,0.7z"/>
	<g id="Group_25" transform="translate(23.123 7.425)">
		<path id="Path_62" class="st3" d="M2.3,26.8l-1.5-0.9c5-8.1,11.2-20.7,9.3-23.1C7.7-0.4,1.1,4.3,1,4.4L0,3c0.3-0.2,8-5.8,11.5-1.2
			C14.8,6,4.4,23.4,2.3,26.8z"/>
	</g>
	<path id="Path_63" class="st3" d="M14.7,0.7l0.5,3.8h1.1l0.5-3.8H14.7z"/>
	<path id="Path_64" class="st3" d="M15.7,2.6c-3.4,0-6.2,1.8-6.3,4.1H22C22,4.4,19.2,2.6,15.7,2.6z"/>
	<path id="Path_65" class="st3" d="M6.7,15.9l-0.6,9.4L0,11.6h3.2L6.7,15.9z"/>
</g>
<g id="Group_34" transform="translate(115.838 35.507)">
	<g id="Group_33" transform="translate(0.72)">
		<g id="Group_27" transform="translate(0 22.939)">
			<path id="Path_66" class="st3" d="M0.6,8.1C0.3,8.1,0,7.8,0,7.5C0,7.3,0.1,7.1,0.2,7l8.9-6.9C9.4-0.1,9.7,0,10,0.3
				c0.2,0.3,0.1,0.6-0.1,0.8L1,8C0.9,8.1,0.8,8.1,0.6,8.1z"/>
		</g>
		<path id="Path_67" class="st4" d="M14.6,13.1c0.3-2.2,1.7-4.1,3.6-5.1c2.9-1.6,6.3-0.3,7.9,2.6c1.8,3.3,1.3,8.7-3.9,16.1
			c-9,0.6-13.9-1.8-15.8-5.1c-1.6-2.9-1-6.4,1.9-8.1C10.3,12.4,12.6,12.2,14.6,13.1z"/>
		<g id="Group_28" transform="translate(20.528 1.667)">
			<path id="Path_68" class="st3" d="M0.6,13.4c-0.3,0-0.6-0.3-0.6-0.6c0-0.2,0.1-0.4,0.2-0.5L15.9,0.1c0.3-0.2,0.7-0.1,0.9,0.1
				c0.2,0.3,0.1,0.6-0.1,0.8L1,13.3C0.9,13.4,0.8,13.4,0.6,13.4z"/>
		</g>
		<g id="Group_29" transform="translate(34.994)">
			<path id="Path_69" class="st3" d="M0.5,3.6L0.5,3.6C0.2,3.5,0,3.3,0,3c0,0,0,0,0,0l0.2-2.5C0.2,0.2,0.5,0,0.8,0s0.5,0.3,0.5,0.6
				l0,0L1,3.1C1,3.4,0.8,3.6,0.5,3.6z"/>
		</g>
		<g id="Group_30" transform="translate(35.041 2.81)">
			<path id="Path_70" class="st3" d="M3.5,1.4C3.4,1.4,3.4,1.4,3.5,1.4L0.5,1C0.2,1,0,0.7,0,0.5C0,0.2,0.3,0,0.6,0l2.9,0.3
				C3.8,0.4,4,0.6,4,0.9C3.9,1.2,3.7,1.4,3.5,1.4L3.5,1.4z"/>
		</g>
		<g id="Group_31" transform="translate(33.066 1.302)">
			<path id="Path_71" class="st3" d="M3.3,4.9c-0.1,0-0.1,0-0.2,0L0,3.6l0.1-3.1C0.1,0.2,0.3,0,0.6,0c0.3,0,0.5,0.2,0.5,0.5
				c0,0,0,0,0,0L1,2.9l2.4,1c0.3,0.1,0.4,0.4,0.3,0.7C3.7,4.8,3.5,4.9,3.3,4.9L3.3,4.9z"/>
		</g>
		<g id="Group_32" transform="translate(30.645 3.29)">
			<path id="Path_72" class="st3" d="M2.9,4.4c0,0-0.1,0-0.1,0L0,3.6l0.2-3.1C0.3,0.2,0.5,0,0.8,0c0.3,0,0.5,0.3,0.5,0.6L1.1,2.8
				L3,3.4C3.3,3.5,3.4,3.7,3.4,4C3.3,4.2,3.1,4.4,2.9,4.4L2.9,4.4z"/>
		</g>
	</g>
	<path id="Path_73" class="st3" d="M3.2,24.3L0,32.1l7.9-2.4l-3.3-1.9L3.2,24.3z"/>
</g>
<g id="Group_35" transform="translate(213.766)">
	<path id="Path_74" class="st4" d="M6.3,20.7l-4.8-5.7l2.8-3.8L0,5.8L3.3,0l2.2,1.2L3,5.5l4.4,5.6L4.7,15l3.5,4.2L6.3,20.7z"/>
</g>
<g id="Group_69" transform="translate(0 178.542)">
	<g id="Group_48" transform="translate(2.4 53.739)">
		<g id="Group_46">
			<g id="Group_36" transform="translate(16.377 0.268)">
				<path id="Path_75" class="st8" d="M0,1.7c-0.1,1,0.6,2,1.7,2.1c1,0.1,2-0.6,2.1-1.7S3.2,0.1,2.1,0c0,0,0,0,0,0
					C1.1-0.1,0.1,0.6,0,1.7z"/>
				<path id="Path_76" class="st9" d="M2.8,2.9C2.5,3.5,1.7,3.7,1.1,3.3C0.6,2.9,0.4,2.2,0.8,1.6C1,1.2,1.5,1,1.9,1
					C2.6,1.1,3.1,1.7,3,2.4C3,2.6,2.9,2.8,2.8,2.9z"/>
			</g>
			<g id="Group_37" transform="translate(3.549 4.132)">
				<path id="Path_77" class="st8" d="M3.3,0.7c0.7,0.8,0.6,2-0.2,2.7s-2,0.6-2.7-0.2c-0.7-0.8-0.6-2,0.2-2.7c0,0,0,0,0,0
					C1.5-0.2,2.7-0.1,3.3,0.7z"/>
				<path id="Path_78" class="st9" d="M3,3.1C2.4,3.5,1.7,3.5,1.2,2.9S0.9,1.7,1.4,1.2C1.6,1,2,0.9,2.3,0.9C3,1,3.5,1.6,3.4,2.3
					C3.4,2.6,3.2,2.9,3,3.1z"/>
			</g>
			<g id="Group_38" transform="translate(11.647)">
				<path id="Path_79" class="st8" d="M3.8,1.9c0,1-0.8,1.9-1.9,1.9C0.9,3.8,0,2.9,0,1.9C0,0.9,0.8,0,1.9,0c0,0,0,0,0,0
					C2.9,0,3.8,0.8,3.8,1.9z"/>
				<path id="Path_80" class="st9" d="M1.9,3.5C1.3,3.5,0.7,3,0.7,2.3c0-0.7,0.5-1.2,1.2-1.2s1.2,0.5,1.2,1.2
					C3.2,2.9,2.6,3.5,1.9,3.5z"/>
			</g>
			<g id="Group_39" transform="translate(20.506 2.042)">
				<path id="Path_81" class="st8" d="M3.3,3.1C2.7,3.9,1.5,4,0.7,3.4c-0.8-0.7-0.9-1.9-0.2-2.7c0.7-0.8,1.9-0.9,2.7-0.2
					c0,0,0,0,0,0C3.9,1.1,4,2.3,3.3,3.1C3.4,3.1,3.4,3.1,3.3,3.1z"/>
				<path id="Path_82" class="st9" d="M2.6,3C2.2,3.5,1.4,3.6,0.9,3.2C0.4,2.7,0.3,1.9,0.7,1.4C1.2,0.9,2,0.8,2.5,1.3
					C3,1.7,3.1,2.5,2.6,3z"/>
			</g>
			<g id="Group_40" transform="translate(5.937 24.284)">
				<path id="Path_83" class="st8" d="M3.6,2.7c0.5-0.9,0.1-2.1-0.8-2.6C1.8-0.3,0.7,0.1,0.2,1C-0.3,2,0.1,3.1,1,3.6c0,0,0,0,0,0
					C2,4.1,3.1,3.7,3.6,2.7z"/>
				<path id="Path_84" class="st9" d="M3.1,2.3C2.8,2.8,2,3,1.4,2.6C0.9,2.2,0.7,1.5,1.1,0.9c0.3-0.5,1-0.7,1.6-0.4
					c0.6,0.3,0.8,1,0.5,1.6C3.2,2.2,3.2,2.2,3.1,2.3z"/>
			</g>
			<g id="Group_41" transform="translate(0.529 16.973)">
				<path id="Path_85" class="st8" d="M2.6,3.6c1-0.4,1.4-1.5,1-2.5c-0.4-1-1.5-1.4-2.5-1c-1,0.4-1.4,1.5-1,2.5c0,0,0,0,0,0
					C0.6,3.6,1.7,4,2.6,3.6z"/>
				<path id="Path_86" class="st9" d="M3.3,2.5C2.9,3,2.1,3.2,1.6,2.8C1,2.4,0.9,1.7,1.2,1.1c0.1-0.2,0.3-0.4,0.5-0.4
					c0.6-0.3,1.3,0,1.6,0.6C3.5,1.7,3.5,2.1,3.3,2.5z"/>
			</g>
			<g id="Group_42" transform="translate(1.084 7.895)">
				<path id="Path_87" class="st8" d="M1.4,3.7c1,0.3,2.1-0.3,2.4-1.3c0.3-1-0.3-2.1-1.3-2.4S0.4,0.3,0.1,1.3c0,0,0,0,0,0
					C-0.2,2.4,0.4,3.4,1.4,3.7z"/>
				<path id="Path_88" class="st9" d="M1.2,2.6C0.8,2,1.1,1.3,1.7,1C2.3,0.6,3,0.9,3.3,1.5c0.2,0.3,0.2,0.6,0.1,0.9
					C3.2,3,2.6,3.4,1.9,3.2C1.6,3.2,1.3,2.9,1.2,2.6z"/>
			</g>
			<g id="Group_43" transform="translate(2.663 21.205)">
				<path id="Path_89" class="st8" d="M0.9,0.3C1.8-0.3,3,0,3.5,0.9C4.1,1.8,3.8,3,2.9,3.5C2,4.1,0.8,3.8,0.3,2.9c0,0,0,0,0,0
					C-0.3,1.9,0,0.8,0.9,0.3C0.9,0.3,0.9,0.3,0.9,0.3z"/>
				<path id="Path_90" class="st9" d="M1.9,2.9C1.2,2.7,0.8,2,1,1.4c0.2-0.7,0.8-1,1.5-0.9c0.3,0.1,0.6,0.3,0.8,0.6
					c0.3,0.6,0.1,1.3-0.5,1.7C2.5,2.9,2.2,2.9,1.9,2.9z"/>
			</g>
			<g id="Group_44" transform="translate(7.341 1.298)">
				<path id="Path_91" class="st8" d="M0.3,2.9c0.6,0.9,1.8,1.1,2.6,0.5c0.9-0.6,1.1-1.8,0.5-2.6S1.7-0.3,0.9,0.3c0,0,0,0,0,0
					C0,0.9-0.3,2.1,0.3,2.9C0.3,2.9,0.3,2.9,0.3,2.9z"/>
				<path id="Path_92" class="st9" d="M2.7,3.3C2.2,3.6,1.4,3.5,1,2.9C0.7,2.3,0.8,1.6,1.4,1.2S2.7,1,3.1,1.6c0.3,0.4,0.3,0.9,0,1.3
					C3,3,2.9,3.2,2.7,3.3z"/>
			</g>
			<g id="Group_45" transform="translate(0 12.509)">
				<path id="Path_93" class="st8" d="M2.2,0c1,0.2,1.7,1.2,1.6,2.2c-0.2,1-1.2,1.7-2.2,1.6C0.5,3.6-0.1,2.6,0,1.6c0,0,0,0,0,0
					C0.2,0.5,1.2-0.1,2.2,0z"/>
				<path id="Path_94" class="st9" d="M2.1,3.1C1.4,3,1,2.4,1.1,1.7c0.1-0.7,0.7-1.1,1.4-1s1.1,0.7,1,1.4c0,0,0,0,0,0
					C3.4,2.8,2.7,3.2,2.1,3.1z"/>
			</g>
			<path id="Path_95" class="st9" d="M15.7,13.9L18,4l-0.3-0.1l-2.4,10.4L14,3.7l-0.4,0l1.2,10.1l-4.6-9.1L9.9,5l4.8,9.5L7,7.1
				L6.7,7.4l7.4,7l-9.4-4l-0.1,0.3l9.8,4.2L3.8,14.3l0,0.4l10.2,0.6l-9.8,3l0.1,0.3l10.2-3.1l-8.5,6.3l0.2,0.3l8.2-6.1l-5.6,8.5
				L9,24.7L21.6,5.6l-0.3-0.2L15.7,13.9z"/>
		</g>
		<g id="Group_47" transform="translate(13.989 13.872)">
			
				<rect id="Rectangle_4" x="19.7" y="-10.2" transform="matrix(0.5476 -0.8367 0.8367 0.5476 -2.254 23.335)" class="st9" width="1.5" height="47.9"/>
		</g>
	</g>
	<g id="Group_61">
		<g id="Group_59">
			<g id="Group_49" transform="translate(37.47 5.889)">
				<path id="Path_96" class="st8" d="M0.6,1.3c-1,1.4-0.7,3.4,0.7,4.5c1.4,1,3.4,0.7,4.5-0.7c1-1.4,0.7-3.4-0.7-4.5c0,0,0,0,0,0
					C3.6-0.4,1.6-0.1,0.6,1.3z"/>
				<path id="Path_97" class="st9" d="M3.7,5.5c-1,0.5-2.3,0.1-2.8-0.9c-0.5-1-0.1-2.3,0.9-2.8C2.5,1.5,3.3,1.5,4,2
					c0.9,0.7,1.1,2,0.5,2.9C4.3,5.2,4,5.4,3.7,5.5z"/>
			</g>
			<g id="Group_50" transform="translate(15.306 1.085)">
				<path id="Path_98" class="st8" d="M6.4,2.6C6.7,4.3,5.6,6,3.8,6.4S0.4,5.6,0.1,3.8c-0.3-1.7,0.8-3.4,2.5-3.8
					C4.3-0.3,6,0.8,6.4,2.6z"/>
				<path id="Path_99" class="st9" d="M3.8,5.9C2.7,6.1,1.6,5.3,1.4,4.2C1.1,3.1,1.9,2,3,1.8c0.5-0.1,1.1,0,1.6,0.3
					C5.5,2.7,5.8,4,5.1,5C4.8,5.4,4.3,5.7,3.8,5.9z"/>
			</g>
			<g id="Group_51" transform="translate(30.685 1.61)">
				<path id="Path_100" class="st8" d="M6,4.8C5.2,6.3,3.2,6.9,1.7,6C0.1,5.2-0.5,3.2,0.4,1.7c0.9-1.6,2.8-2.1,4.4-1.3
					C6.3,1.2,6.9,3.2,6,4.8C6,4.8,6,4.8,6,4.8z"/>
				<path id="Path_101" class="st9" d="M2,5.6C1,5.1,0.6,3.8,1.1,2.8C1.7,1.8,3,1.4,4,2c1,0.6,1.4,1.8,0.8,2.8c0,0,0,0,0,0
					C4.2,5.8,3,6.2,2,5.6z"/>
			</g>
			<g id="Group_52" transform="translate(42.128 11.903)">
				<path id="Path_102" class="st8" d="M4.4,6.2C2.7,6.8,0.9,6,0.2,4.4c-0.6-1.7,0.2-3.5,1.8-4.2C3.7-0.4,5.6,0.4,6.2,2
					C6.8,3.7,6,5.6,4.4,6.2C4.4,6.2,4.4,6.2,4.4,6.2z"/>
				<path id="Path_103" class="st9" d="M3.4,5.4C2.3,5.9,1.1,5.3,0.7,4.3C0.3,3.2,0.8,2,1.9,1.6C3,1.2,4.2,1.7,4.6,2.8
					C5,3.8,4.5,5,3.4,5.4z"/>
			</g>
			<g id="Group_53" transform="translate(2.323 32.886)">
				<path id="Path_104" class="st8" d="M5,5.9c1.5-1,1.8-3,0.8-4.5c-1-1.5-3-1.8-4.5-0.8s-1.8,3-0.8,4.5c0,0,0,0,0,0
					C1.6,6.5,3.6,6.9,5,5.9z"/>
				<path id="Path_105" class="st9" d="M4.7,4.7c-1,0.5-2.3,0.1-2.8-0.9S1.8,1.6,2.8,1.1c0.9-0.5,2.1-0.2,2.7,0.7
					C6.1,2.7,5.9,4,4.9,4.6C4.9,4.7,4.8,4.7,4.7,4.7z"/>
			</g>
			<g id="Group_54" transform="translate(0.309 17.623)">
				<path id="Path_106" class="st8" d="M2.9,6.4c1.8,0.2,3.3-1.1,3.5-2.9S5.3,0.2,3.5,0S0.2,1.1,0,2.9c0,0,0,0,0,0
					C-0.2,4.7,1.1,6.2,2.9,6.4C2.9,6.4,2.9,6.4,2.9,6.4z"/>
				<path id="Path_107" class="st9" d="M4.8,5.2C3.8,5.7,2.5,5.3,2,4.3C1.5,3.3,1.9,2,2.9,1.5C3.2,1.3,3.6,1.2,4,1.3
					c1.1,0.1,2,1.1,1.9,2.3C5.8,4.3,5.4,4.9,4.8,5.2z"/>
			</g>
			<g id="Group_55" transform="translate(8.572 4.635)">
				<path id="Path_108" class="st8" d="M0.9,5.5c1.2,1.3,3.3,1.3,4.5,0c1.3-1.2,1.3-3.3,0-4.5C4.3-0.3,2.2-0.3,1,0.9
					C-0.3,2.2-0.3,4.2,0.9,5.5C0.9,5.4,0.9,5.5,0.9,5.5z"/>
				<path id="Path_109" class="st9" d="M1.5,3.7c0-1.1,1-2.1,2.1-2.1c1.1,0,2.1,1,2.1,2.1c0,0.6-0.2,1.1-0.6,1.5
					C4.2,6,2.9,6,2.1,5.2C1.7,4.8,1.5,4.3,1.5,3.7z"/>
			</g>
			<g id="Group_56" transform="translate(0 25.641)">
				<path id="Path_110" class="st8" d="M3.1,0c1.8,0,3.2,1.4,3.3,3.1c0,1.8-1.4,3.2-3.1,3.3C1.5,6.5,0,5,0,3.3c0,0,0,0,0,0
					C0,1.5,1.4,0,3.1,0z"/>
				<path id="Path_111" class="st9" d="M2.4,4.6C1.6,3.8,1.6,2.5,2.3,1.7s2.1-0.9,2.9-0.1C5.7,2,5.9,2.5,5.9,3.1
					c0,1.1-0.9,2.1-2,2.1C3.3,5.2,2.8,5,2.4,4.6z"/>
			</g>
			<g id="Group_57" transform="translate(23.246)">
				<path id="Path_112" class="st8" d="M0,3.5c0.1,1.8,1.7,3.1,3.4,3c1.8-0.1,3.1-1.7,3-3.4C6.3,1.2,4.7-0.1,3,0
					C1.2,0.1-0.1,1.7,0,3.5z"/>
				<path id="Path_113" class="st9" d="M3.3,5.9C2.2,6,1.2,5.1,1.1,4C1,2.9,1.9,1.9,3,1.8c1.1-0.1,2.1,0.8,2.2,1.9
					c0.1,0.8-0.4,1.6-1.1,2C3.9,5.8,3.6,5.9,3.3,5.9z"/>
			</g>
			<g id="Group_58" transform="translate(3.184 10.579)">
				<path id="Path_114" class="st8" d="M5.2,0.7c1.4,1.1,1.6,3.1,0.5,4.5C4.6,6.6,2.6,6.8,1.2,5.7s-1.6-3.1-0.5-4.5c0,0,0,0,0,0
					C1.8-0.2,3.8-0.4,5.2,0.7z"/>
				<path id="Path_115" class="st9" d="M2.5,5.2c-0.9-0.7-1-2-0.3-2.9c0.7-0.9,2-1,2.9-0.3c0.9,0.7,1,2,0.3,2.9c0,0,0,0,0,0
					C4.6,5.7,3.3,5.9,2.5,5.2z"/>
			</g>
			<path id="Path_116" class="st9" d="M27.1,24.4l11.6-12.8l-0.4-0.4L26.2,24.5l6.8-16.6l-0.6-0.2l-6.6,16l0.6-17.3l-0.6,0l-0.7,18
				L19.8,7.2l-0.6,0.2l5.2,16.5L13.9,10.2l-0.5,0.4l11.1,14.2L9.3,15.2l-0.3,0.5l14.6,9.2L6.6,21.3l-0.1,0.6l17.6,3.8L6.3,28
				l0.1,0.6l17.1-2.3L8.2,34.4L8.5,35l34.2-18l-0.3-0.5L27.1,24.4z"/>
		</g>
		<g id="Group_60" transform="translate(23.698 23.604)">
			
				<rect id="Rectangle_5" x="18.8" y="-4.1" transform="matrix(0.8845 -0.4664 0.4664 0.8845 -14.6927 13.5648)" class="st9" width="2.6" height="81.1"/>
		</g>
	</g>
	<g id="Group_63" transform="translate(50.407 16.118)">
		<g id="Group_62" transform="translate(1.064 0.003)">
			<path id="Path_117" class="st10" d="M6.7,87c0,0,30.2-22.4,34.3-32.1s-4.4-8.6-4.4-8.6s12.2-17.3,9-23s-10,1.6-10,1.6
				s5.7-23.4,0.7-24.7c-9.2-2.4-16.7,22.8-16.7,22.8s0.7-10.5-5.1-9c-8.6,2.1-4.1,24.6-4.1,24.6s-2.8-4-7.5-0.2
				C-5.5,45.1,6.7,87,6.7,87z"/>
		</g>
		<path id="Path_118" class="st12" d="M2.8,38.9c2.4-2.2,6.1-2.4,8.8-0.4c0,0-4.6-22.5,4.1-24.6c5.7-1.4,5.2,8.5,5.2,8.5
			S28.2-2.3,37.4,0.2L7.5,86.9C6.2,81.5-5.1,45.2,2.8,38.9z"/>
	</g>
	<g id="Group_64" transform="translate(58.18 53.413)">
		<path id="Path_119" class="st12" d="M0,48.9c0,0,20.6,0.4,31.6-2.6c2.1-0.5,4-1.5,5.7-2.8c6.4-5.4-1.4-5.8-1.4-5.8
			s17.7-9.5,17.5-14.8s-7.2-5.4-7.2-5.4s9.7-11.3,6-15.9c-4.8-5.8-16.9,5.6-16.9,5.6c0.7-2.1-0.4-4.4-2.5-5.1
			C32.6,2,32.4,2,32.1,1.9c-6.8-1.6-13.8,22.6-13.8,22.6s0.9-9.9-3.8-8.9C6.1,17.3,0,48.9,0,48.9z"/>
	</g>
	<g id="Group_66" transform="translate(22.609 19.5)">
		<g id="Group_65" transform="translate(0 0.005)">
			<path id="Path_120" class="st10" d="M33.9,84.7c0,0-27.5-23.5-30.8-32.9s4.7-7.9,4.7-7.9S-2.7,26.8,0.7,21.5s9.4,2.1,9.4,2.1
				S6.1,1,10.9,0.1c8.9-1.8,14.5,22.7,14.5,22.7s0-10,5.4-8.3c8.1,2.5,2.4,23.7,2.4,23.7s3-7.9,7.3-4C48.1,41.1,33.9,84.7,33.9,84.7
				z"/>
		</g>
		<path id="Path_121" class="st11" d="M41.7,32.8c-5-3-7.4,1-7.4,1s4.9-17-3.2-19.6c-5.4-1.7-5.9,6.9-5.9,6.9S19.7-1.7,10.9,0.1
			L34.5,87C36.1,81.9,47.6,36.3,41.7,32.8z"/>
	</g>
	<g id="Group_68" transform="translate(2.848 76.586)">
		<g id="Group_67">
			<path id="Path_122" class="st12" d="M51.3,24.1c0,0-18.1,0.3-29.1-0.2c-4.4-0.2-7.5-0.3-8.1-0.9c-2.4-2.4,3.8-4.4,3.8-4.4
				s-9.9,1.1-11.4-1.2s2.4-3.2,2.4-3.2S-0.4,11.5,0,9.5c0.8-3.7,11.2-1.3,11.2-1.3S9,5.4,10.6,3.7C12.9,1,20.9,7.1,20.9,7.1
				s-2.8-4.2-1.2-6C26-6,51.3,24.1,51.3,24.1z"/>
		</g>
	</g>
	<path id="Path_123" class="st9" d="M32.3,134.6h50.2c6.5-5.8,10.2-14,10.2-22.7c0-4.2-1-8.4-2.9-12.2l-64.8,0.7
		c-1.8,3.9-2.7,8.3-2.7,12.6C22.6,121.3,26.2,129.1,32.3,134.6z"/>
</g>
<g id="Group_72" transform="translate(228.571 66.947)">
	<path id="Path_124" class="st2" d="M50.8,4.9c11.2-4.7,15.6,6.2,13.7,9.5c13.2,5.9,6.4,14.9,6.4,14.9c10.1,3.9,6.4,18.4,1.7,18
		c7.9,11.3-9.3,21.6-22.2,13.8C34,65.3,22,66.7,23.4,58c-9.9-4.9-0.5-15.8-0.4-16.8c-10.1-6.4-4-16.5,0.6-20.5
		c-7.8-9.2,5-12.3,5-12.3C30.1-2.5,45.1-1.8,50.8,4.9z"/>
	<path id="Path_125" class="st13" d="M48.3,137.1c0,0-35.4,6.1-42.1,11.7s21.2,20.6,21.2,20.6s14-9.5,20.2-10.6
		c6.1-1.1,17.5-2.1,28-5.7s0.3-17.6-2.1-19.4S48.3,137.1,48.3,137.1z"/>
	<path id="Path_126" class="st11" d="M33.3,53.8c-1.4,0.5-7.6,4.3-11.5,16.1c-3.5,10.3-6,20.3-6,20.3c4.4,1.5,12.2,4.8,16.9,4.9
		l1.2-3.3l0.5-27.1C34.3,64.7,33.9,53.6,33.3,53.8z"/>
	<path id="Path_127" class="st14" d="M37.4,51.5c-0.5,0.2-2.5,1.4-4.1,2.2c0,0-17.6,28.2-5.9,36.9c4,2.9,6.9,14.1,6.9,26.3
		c-0.2,7.7-1.1,15.3-2.7,22.8c26.9,10,41.5,3.1,52.4-8.8c-9.4-5.5-15-15.6-14.8-26.4c0.7-41.9-5.9-52.6-5.9-52.6s-4.7-1.4-9.6-2.7
		C49,48.2,41.8,49.7,37.4,51.5z"/>
	<path id="Path_128" class="st15" d="M48.3,33.1c0,0,0,0.3,0,0.9c0.1,2.9,0.7,11.4,1.7,14.1c1.3,3.3-6.5,16.2-13.8,13.9
		c-2.2-0.7,2.4-7.2,2.1-10.7c-0.1-2-0.5-8.2-0.8-13.2c-0.2-3.8-0.4-7-0.4-7L48.3,33.1z"/>
	<path id="Path_129" class="st16" d="M48.7,38.2c0-0.7-0.2-0.8-0.3-1.3c0-0.6,0-0.9,0-0.9l-11-1.9c0.1,1.1,0.2,2.6,0.3,4.1
		c0.1,2.3,0.3,4.8,0.4,7.1c2-0.1,3.9-0.6,5.5-1.7C45.8,42.3,47.5,40.5,48.7,38.2z"/>
	<path id="Path_130" class="st15" d="M42.4,13.3c3,1,5.5,3,7.2,5.7c2.7,4.4,4.5,17.1-4.8,22.5s-16.2-3.3-16.3-11.5
		S30.4,11.2,42.4,13.3z"/>
	<path id="Path_131" class="st12" d="M40.8,10c0,0,5.3,12.6,10.3,13.9s4.7,7.5,4.7,7.5s0.3-14.4-4.3-17.9S40.8,10,40.8,10z"/>
	<g id="Group_70" transform="translate(32.193 4.509)">
		<path id="Path_132" class="st2" d="M8.1,0.1c6.2,1.3,16,6.6,19.9,13.2c4.9,8,1.3,16.9-4.4,21.3S19.1,44,19.1,44l-1-1.8
			c-1.2-2.1-1.8-4.6-1.6-7c0.1-1.3,0.4-2.5,0.9-3.7c3.3-5.8-1.8-6.2-3-8.6c-0.9-1.9-2.1-4.8-3.5-7.9L9,12.7c-2.4-1.4-5.2-2.2-8-2.2
			C-1.4,10.6,0.1-1.5,8.1,0.1z"/>
	</g>
	<path id="Path_133" class="st15" d="M46.8,29.3c-0.7,2-0.2,4,1.2,4.5s3.1-0.7,3.8-2.7s0.2-4-1.2-4.5S47.6,27.3,46.8,29.3z"/>
	<path id="Path_134" class="st15" d="M31.4,229.6c0,0,1.2,4.1-1.2,6.7s-11.9,5.1-13.2,6.5c-0.7,0.7-1.2,1.7-1.2,2.7l26.4,0.5
		l0.3-8.7l-1.1-5.8L31.4,229.6z"/>
	<path id="Path_135" class="st12" d="M28.6,237.6c0,0,6.8,2.9,10.2,1.3s3.3-2,4.2-1.4s0.4,9,0.4,9l-29.7-0.4c0,0-0.2-3.8,2.2-5
		S28.6,237.6,28.6,237.6z"/>
	<path id="Path_136" class="st13" d="M24.5,153.5c-2.4-4.1-9.2-6.7-9.2-6.7s-3.5-1.8-9,2s-4.3,15-1.2,22.9S28,226,29,232.4l13.1-0.9
		c0,0-5.2-37.4-6.4-46.5C34.5,176.4,28.6,160.7,24.5,153.5z"/>
	<path id="Path_137" class="st13" d="M53.3,143.7l-9.8,23.5l23.4,3.5l11.6-19.5L53.3,143.7z"/>
	<g id="Group_71" transform="translate(0 155.769)">
		<path id="Path_138" class="st15" d="M14.1,62.7c0,0-5.8,10.8-9,13.1s-3.5,8.4-3.7,9.2s1,2.9,7.1,4.8s8.7,1.1,9.2-1.3
			c0.3-1.5-0.4-3.7-0.7-5.6c-0.3-1-0.3-2-0.1-3.1c0.7-2.2,5.9-8.7,5.9-8.7L14.1,62.7z"/>
		<path id="Path_139" class="st10" d="M9.3,91.2c6.2,1.9,7.9-0.4,8.4-2.7c0.3-1.5-0.4-3.7-0.7-5.6c-1.7,0.3-3.4,0.3-5.1,0
			c-3-0.4-6-3.9-7.9-5.9c-1.7,2.3-3,4.9-3.9,7.6C-0.2,85.3,3.2,89.2,9.3,91.2z"/>
		<path id="Path_140" class="st9" d="M38.2,18.4C32.8,26.9,7.3,70,7.3,70l13.3,7.8c0,0,42.9-52,46-61.5c3-9.5-3.2-13.5-7-15.1
			C53.2-1.4,50.7-1.3,38.2,18.4z"/>
	</g>
</g>
<path id="Path_141" class="st2" d="M358.9,216.9l-3.9,96.3h3.3l10.7-97.4L358.9,216.9z"/>
<g id="Group_74" transform="translate(301.464 182.577)">
	<g id="Group_73" transform="translate(0 1.514)">
		<path id="Path_142" class="st8" d="M3.9,13.6l2.4,0l-0.2-2.7l-2.2,0c-1.1,0-1.9-1.2-1.9-2.7l0-2.7c0-1.5,0.8-2.7,1.9-2.7l2.9,0
			l0-2.7L3.8,0C1.7,0,0,2.5,0,5.5l0,2.7C0,11.2,1.8,13.6,3.9,13.6z"/>
	</g>
	<path id="Path_143" class="st8" d="M20.7,1.6L20.8,14c0,2.8-2.3,5.2-5.1,5.2h0l-4.4,0c-2.8,0-5.2-2.3-5.2-5.1c0,0,0,0,0,0l-0.1-14
		L20.7,0L20.7,1.6z"/>
</g>
<path id="Rectangle_6" class="st2" d="M178.7,200.1h196.4c10.3,0,18.7,8.4,18.7,18.7l0,0l0,0l0,0H160l0,0l0,0
	C160,208.5,168.4,200.1,178.7,200.1z"/>
<path id="Path_144" class="st2" d="M195.7,216.1l4.6,97.1h-3.9L183.7,215L195.7,216.1z"/>
<path id="Path_145" class="st2" d="M374.5,216.1l-3.8,97.1h4.2l9.6-98.2L374.5,216.1z"/>
<g id="Group_108" transform="translate(325.517 148.03)">
	<g id="Group_87" transform="translate(83.699 52.262)">
		<g id="Group_85" transform="translate(21.006)">
			<g id="Group_75" transform="translate(21.868 18.479)">
				<path id="Path_146" class="st8" d="M2.4,0.1c-1-0.3-2.1,0.3-2.4,1.3s0.3,2.1,1.3,2.4c1,0.3,2.1-0.3,2.4-1.3
					C4,1.4,3.4,0.4,2.4,0.1z"/>
				<path id="Path_147" class="st9" d="M0.7,2.6C0.2,2.2,0.2,1.4,0.7,0.9s1.2-0.5,1.7-0.1c0.3,0.3,0.5,0.8,0.3,1.2
					c-0.2,0.6-0.9,1-1.5,0.8C1,2.9,0.8,2.8,0.7,2.6z"/>
			</g>
			<g id="Group_76" transform="translate(20.262 5.178)">
				<path id="Path_148" class="st8" d="M2.9,3.5C1.9,4.1,0.8,3.8,0.3,2.9S0,0.8,0.9,0.3C1.8-0.3,3,0,3.5,0.9c0,0,0,0,0,0
					C4.1,1.8,3.8,3,2.9,3.5z"/>
				<path id="Path_149" class="st9" d="M0.5,2.7C0.2,2.2,0.4,1.4,1,1.1C1.4,0.8,2,0.8,2.4,1.2c0.1,0.1,0.2,0.2,0.2,0.3
					c0.2,0.3,0.2,0.6,0.1,0.9c-0.2,0.7-0.8,1-1.5,0.9C1,3.2,0.7,3,0.5,2.7z"/>
			</g>
			<g id="Group_77" transform="translate(22.944 13.865)">
				<path id="Path_150" class="st8" d="M1.6,3.8C0.5,3.6-0.1,2.6,0,1.6c0.2-1,1.2-1.7,2.2-1.5c1,0.2,1.7,1.2,1.5,2.2
					C3.6,3.2,2.6,3.9,1.6,3.8z"/>
				<path id="Path_151" class="st9" d="M0.3,1.7c0.1-0.7,0.7-1.1,1.4-1c0.7,0.1,1.1,0.7,1,1.4C2.6,2.7,2,3.2,1.3,3.1c0,0,0,0,0,0
					C0.6,3,0.2,2.3,0.3,1.7z"/>
			</g>
			<g id="Group_78" transform="translate(19.412 22.242)">
				<path id="Path_152" class="st8" d="M0.4,3.1c-0.7-0.8-0.6-2,0.2-2.7c0.8-0.7,2-0.6,2.7,0.2c0.7,0.8,0.6,2-0.2,2.7c0,0,0,0,0,0
					C2.3,4,1.1,3.9,0.4,3.1C0.5,3.1,0.5,3.1,0.4,3.1z"/>
				<path id="Path_153" class="st9" d="M0.7,2.4C0.2,1.9,0.3,1.1,0.8,0.7c0.5-0.4,1.3-0.4,1.7,0.1C3,1.4,2.9,2.1,2.4,2.6
					C1.9,3,1.1,2.9,0.7,2.4C0.7,2.4,0.7,2.4,0.7,2.4z"/>
			</g>
			<g id="Group_79" transform="translate(0 4.073)">
				<path id="Path_154" class="st8" d="M0.8,3.4C1.6,4,2.8,3.9,3.4,3C4.1,2.2,3.9,1,3,0.4C2.2-0.3,1-0.1,0.4,0.8c0,0,0,0,0,0
					C-0.2,1.6-0.1,2.8,0.8,3.4z"/>
				<path id="Path_155" class="st9" d="M1.3,3C0.8,2.6,0.8,1.8,1.3,1.3C1.7,0.8,2.5,0.8,3,1.3c0.5,0.4,0.5,1.1,0.1,1.6
					C2.8,3.4,2,3.5,1.4,3.1C1.4,3.1,1.4,3.1,1.3,3z"/>
			</g>
			<g id="Group_80" transform="translate(8.13)">
				<path id="Path_156" class="st8" d="M0.1,2.3c0.2,1,1.3,1.7,2.3,1.4c1-0.2,1.7-1.3,1.4-2.3C3.5,0.4,2.5-0.2,1.5,0c0,0,0,0,0,0
					C0.4,0.3-0.2,1.3,0.1,2.3z"/>
				<path id="Path_157" class="st9" d="M1.1,3.2C0.6,2.7,0.6,1.9,1,1.4s1.2-0.5,1.7-0.1C3,1.5,3.1,1.8,3.1,2
					c0.2,0.7-0.2,1.3-0.9,1.5C1.8,3.6,1.4,3.4,1.1,3.2z"/>
			</g>
			<g id="Group_81" transform="translate(16.978 2.104)">
				<path id="Path_158" class="st8" d="M0.2,1C-0.3,2,0.1,3.1,1,3.6C2,4.1,3.1,3.7,3.6,2.8s0.1-2.1-0.8-2.6c0,0,0,0,0,0
					C1.8-0.3,0.7,0.1,0.2,1C0.2,1,0.2,1,0.2,1z"/>
				<path id="Path_159" class="st9" d="M1.3,1c0.6-0.2,1.3,0.1,1.5,0.8c0.2,0.6-0.1,1.3-0.8,1.5C1.8,3.5,1.4,3.5,1.1,3.3
					C0.5,3,0.3,2.3,0.6,1.7C0.7,1.4,1,1.1,1.3,1z"/>
			</g>
			<g id="Group_82" transform="translate(3.595 1.375)">
				<path id="Path_160" class="st8" d="M3.7,1.2c0.4,1-0.1,2.1-1.1,2.4S0.5,3.5,0.1,2.6c-0.4-1,0.1-2.1,1.1-2.4c0,0,0,0,0,0
					C2.2-0.2,3.3,0.3,3.7,1.2C3.7,1.2,3.7,1.2,3.7,1.2z"/>
				<path id="Path_161" class="st9" d="M1,1.7c0.3-0.6,1-0.9,1.6-0.6s0.9,1,0.6,1.6C3.1,3,2.8,3.3,2.5,3.4C1.9,3.6,1.2,3.3,0.9,2.6
					C0.8,2.3,0.8,2,1,1.7z"/>
			</g>
			<g id="Group_83" transform="translate(22.404 9.401)">
				<path id="Path_162" class="st8" d="M1.1,0.2c-1,0.4-1.4,1.5-1,2.5c0.4,1,1.5,1.4,2.5,1c1-0.4,1.4-1.5,1-2.5
					C3.2,0.2,2.1-0.3,1.1,0.2C1.1,0.2,1.1,0.2,1.1,0.2z"/>
				<path id="Path_163" class="st9" d="M0.4,2.5C0.1,1.9,0.4,1.1,1,0.9s1.3,0,1.6,0.6c0.3,0.6,0,1.3-0.6,1.6C1.6,3.3,1,3.2,0.7,2.9
					C0.6,2.8,0.5,2.6,0.4,2.5z"/>
			</g>
			<g id="Group_84" transform="translate(12.618 0.244)">
				<path id="Path_164" class="st8" d="M3.7,2.5C3.3,3.5,2.2,4,1.3,3.7c-1-0.4-1.5-1.4-1.2-2.4s1.4-1.5,2.4-1.2c0,0,0,0,0,0
					C3.5,0.5,4,1.5,3.7,2.5z"/>
				<path id="Path_165" class="st9" d="M0.7,1.9c0.2-0.6,0.9-1,1.6-0.7C2.9,1.3,3.2,2,3,2.7C2.7,3.3,2,3.6,1.4,3.4c0,0,0,0,0,0
					C0.8,3.2,0.4,2.5,0.7,1.9z"/>
			</g>
			<path id="Path_166" class="st9" d="M12.6,15.8l9.4,4l0.1-0.3l-9.8-4.2L23,15.9l0-0.4l-10.2-0.6l9.8-3l-0.1-0.3l-10.2,3.1l8.5-6.4
				l-0.2-0.3l-8.2,6.1L18,5.6l-0.3-0.2l-5.8,8.9L14.3,4L14,3.9l-2.3,9.9L10.4,3.7l-0.4,0l1.3,10.5L6.5,4.8L6.2,5l4.6,9.1l-7.5-7
				L3.1,7.4L19.8,23l0.2-0.3L12.6,15.8z"/>
		</g>
		<g id="Group_86" transform="translate(0 13.924)">
			
				<rect id="Rectangle_7" x="-7" y="17.2" transform="matrix(0.683 -0.7304 0.7304 0.683 -7.7951 18.0634)" class="st9" width="47.9" height="1.5"/>
		</g>
	</g>
	<g id="Group_100" transform="translate(76.684)">
		<g id="Group_98" transform="translate(9.778)">
			<g id="Group_88" transform="translate(42.937 24.078)">
				<path id="Path_167" class="st8" d="M3.1,0C1.3,0.1-0.1,1.6,0,3.3c0.1,1.8,1.6,3.1,3.3,3.1c1.8-0.1,3.1-1.6,3.1-3.3l0,0
					C6.3,1.3,4.8-0.1,3.1,0z"/>
				<path id="Path_168" class="st9" d="M1.7,5.1c-1-0.5-1.5-1.7-1.1-2.7c0.5-1,1.7-1.5,2.7-1.1c0.7,0.3,1.2,1,1.2,1.8
					c0,1.1-0.8,2.1-2,2.2C2.3,5.2,2,5.2,1.7,5.1z"/>
			</g>
			<g id="Group_89" transform="translate(33.033 3.676)">
				<path id="Path_169" class="st8" d="M5.6,5.3C4.5,6.6,2.5,6.8,1.1,5.6c-1.3-1.2-1.5-3.2-0.3-4.5C1.9-0.2,4-0.4,5.3,0.8
					C6.6,1.9,6.8,4,5.6,5.3z"/>
				<path id="Path_170" class="st9" d="M1.5,5.3c-0.9-0.7-1-2.1-0.2-2.9c0.6-0.7,1.6-0.9,2.4-0.5C3.9,1.9,4.1,2,4.2,2.2
					C4.6,2.5,4.9,3,4.9,3.6C5,4.7,4.1,5.7,3,5.8C2.5,5.8,1.9,5.7,1.5,5.3z"/>
			</g>
			<g id="Group_90" transform="translate(42.114 16.099)">
				<path id="Path_171" class="st8" d="M3.7,6.4C2,6.7,0.3,5.5,0,3.7C-0.2,2,0.9,0.3,2.7,0c1.7-0.3,3.4,0.9,3.7,2.6
					C6.7,4.4,5.5,6.1,3.7,6.4C3.7,6.4,3.7,6.4,3.7,6.4z"/>
				<path id="Path_172" class="st9" d="M0.5,3.7C0.4,2.6,1.1,1.5,2.3,1.3C3.4,1.2,4.5,1.9,4.6,3S4.1,5.2,2.9,5.4c0,0,0,0,0,0
					C1.8,5.6,0.7,4.9,0.5,3.7z"/>
			</g>
			<g id="Group_91" transform="translate(41.081 31.455)">
				<path id="Path_173" class="st8" d="M1.6,6C0,5.1-0.5,3.1,0.4,1.6s2.9-2,4.4-1.1c1.5,0.9,2,2.9,1.1,4.4C5.1,6.4,3.1,6.9,1.6,6
					C1.6,6,1.6,6,1.6,6z"/>
				<path id="Path_174" class="st9" d="M1.6,4.7c-1-0.6-1.3-1.9-0.7-2.8c0.6-1,1.9-1.3,2.8-0.7C4.7,1.7,5,3,4.4,4c0,0,0,0,0,0
					C3.8,5,2.5,5.3,1.6,4.7z"/>
			</g>
			<g id="Group_92" transform="translate(0 13.093)">
				<path id="Path_175" class="st8" d="M2.2,6.3c1.7,0.5,3.5-0.4,4-2.1c0.5-1.7-0.4-3.5-2.1-4c-1.7-0.5-3.5,0.4-4,2.1c0,0,0,0,0,0
					C-0.4,3.9,0.6,5.7,2.2,6.3z"/>
				<path id="Path_176" class="st9" d="M2.9,5.4c-1-0.5-1.5-1.7-1-2.7c0.5-1,1.7-1.5,2.7-1c1,0.4,1.4,1.5,1.1,2.5
					C5.4,5.2,4.3,5.8,3.2,5.5C3.1,5.4,3,5.4,2.9,5.4z"/>
			</g>
			<g id="Group_93" transform="translate(10.765 2.087)">
				<path id="Path_177" class="st8" d="M0.5,4.9c1,1.5,2.9,1.9,4.4,1c1.5-1,1.9-2.9,1-4.4S3-0.4,1.5,0.5c0,0,0,0,0,0
					C0,1.5-0.4,3.4,0.5,4.9C0.5,4.9,0.5,4.9,0.5,4.9z"/>
				<path id="Path_178" class="st9" d="M2.6,5.7c-1-0.5-1.5-1.7-1-2.7c0.5-1,1.7-1.5,2.7-1C4.7,2.1,5,2.3,5.2,2.7
					c0.6,1,0.3,2.3-0.6,2.9C4,5.9,3.3,6,2.6,5.7z"/>
			</g>
			<g id="Group_94" transform="translate(26.083 0.57)">
				<path id="Path_179" class="st8" d="M0,2.8c-0.2,1.8,1,3.4,2.8,3.6c1.8,0.2,3.4-1,3.6-2.8c0.2-1.8-1-3.4-2.8-3.6
					C1.9-0.2,0.3,1,0,2.8C0,2.8,0,2.8,0,2.8z"/>
				<path id="Path_180" class="st9" d="M1.8,2.2C2.7,1.5,4,1.7,4.7,2.6c0.7,0.9,0.5,2.2-0.4,2.9C3.9,5.8,3.3,6,2.8,5.9
					C1.6,5.8,0.8,4.7,1,3.6C1,3,1.3,2.5,1.8,2.2z"/>
			</g>
			<g id="Group_95" transform="translate(4.267 6.793)">
				<path id="Path_181" class="st8" d="M5.7,1.2c1.1,1.4,0.9,3.4-0.4,4.5C3.9,6.8,1.9,6.6,0.7,5.2s-0.9-3.4,0.4-4.5c0,0,0,0,0,0
					C2.5-0.4,4.6-0.2,5.7,1.2L5.7,1.2z"/>
				<path id="Path_182" class="st9" d="M1.6,3.4c0.1-1.1,1.1-2,2.3-1.9s2,1.1,1.9,2.3C5.7,4.4,5.4,4.9,5,5.3C4.1,6,2.8,5.8,2.1,5
					C1.7,4.5,1.6,4,1.6,3.4z"/>
			</g>
			<g id="Group_96" transform="translate(38.789 9.252)">
				<path id="Path_183" class="st8" d="M1,0.8C-0.3,2-0.4,4.1,0.8,5.4C2,6.7,4.1,6.8,5.4,5.6C6.7,4.4,6.8,2.3,5.6,1
					C4.4-0.3,2.3-0.4,1,0.8C1,0.8,1,0.8,1,0.8z"/>
				<path id="Path_184" class="st9" d="M1.2,5C0.4,4.1,0.4,2.8,1.3,2.1c0.8-0.8,2.2-0.7,2.9,0.1C5,3,4.9,4.3,4.1,5.1
					C3.5,5.7,2.6,5.8,1.8,5.5C1.6,5.4,1.3,5.2,1.2,5z"/>
			</g>
			<g id="Group_97" transform="translate(18.082)">
				<path id="Path_185" class="st8" d="M6.4,3.2c0,1.8-1.5,3.2-3.2,3.2C1.4,6.4,0,4.9,0,3.2S1.5,0,3.2,0c0,0,0,0,0,0
					C5,0,6.4,1.5,6.4,3.2z"/>
				<path id="Path_186" class="st9" d="M1.2,3.8c0-1.1,1-2.1,2.1-2c1.1,0,2.1,1,2,2.1c0,1.1-1,2.1-2.1,2C2.1,5.9,1.2,5,1.2,3.8z"/>
			</g>
			<path id="Path_187" class="st9" d="M25.8,26.1L43,27.3l0-0.6l-17.9-1.2l17.3-4.9L42.2,20l-16.6,4.7l14-10.2L39.2,14L24.7,24.6
				L34.8,9.7l-0.5-0.3l-9.7,14.3l4.2-16.8l-0.6-0.1l-4.3,17.5L22,6.3l-0.6,0.1l1.7,17.2L15.6,8L15,8.3l7.9,16.2L10,11.9l-0.4,0.4
				l12.4,12l-15.8-7l-0.2,0.6l35.3,15.8l0.2-0.6L25.8,26.1z"/>
		</g>
		<g id="Group_99" transform="translate(0 23.63)">
			
				<rect id="Rectangle_8" x="-22.8" y="36.2" transform="matrix(0.408 -0.913 0.913 0.408 -23.7816 38.405)" class="st9" width="81.1" height="2.6"/>
		</g>
	</g>
	<g id="Group_102" transform="translate(49.179 33.138)">
		<g id="Group_101" transform="translate(1.184)">
			<path id="Path_188" class="st10" d="M7.4,96.8c0,0,33.6-25,38.2-35.7s-4.9-9.5-4.9-9.5s13.6-19.2,10-25.6s-11.1,1.8-11.1,1.8
				s6.3-26,0.8-27.5C30.2-2.5,21.9,25.5,21.9,25.5s0.8-11.6-5.6-10.1c-9.6,2.4-4.5,27.4-4.5,27.4s-3.1-4.4-8.3-0.2
				C-6.1,50.2,7.4,96.8,7.4,96.8z"/>
		</g>
		<path id="Path_189" class="st12" d="M3.1,43.3c5.3-4.2,9.8-0.4,9.8-0.4s-5.1-25,4.5-27.4c6.4-1.6,5.6,10.1,5.6,10.1
			s8.4-28,18.6-25.3L8.4,96.7C6.9,90.7-5.7,50.3,3.1,43.3z"/>
	</g>
	<g id="Group_103" transform="translate(57.829 74.636)">
		<path id="Path_190" class="st11" d="M0,54.4c0,0,23.3,0.6,35.4-2.9c2.2-0.7,4.3-1.7,6.2-3.1c7.1-6-1.6-6.4-1.6-6.4
			s19.7-10.6,19.5-16.4s-8-6-8-6S62.3,6.9,58.1,1.8C52.8-4.6,39.3,8,39.3,8c0.8-2.4-0.4-4.9-2.8-5.7c-0.2-0.1-0.5-0.1-0.7-0.2
			c-7.6-1.8-15.4,25.1-15.4,25.1s1-11-4.2-9.9C6.8,19.3,0,54.4,0,54.4z"/>
	</g>
	<g id="Group_105" transform="translate(17.28 36.646)">
		<g id="Group_104">
			<path id="Path_191" class="st10" d="M39.1,94.3c0,0-30.6-26.1-34.3-36.6s5.2-8.8,5.2-8.8S-3.1,28.4,0.7,22.5s10.4,1.3,10.4,1.3
				s-3-22.7,2.3-23.7c9.9-1.9,16.1,25.2,16.1,25.2s0-11.1,6-9.2c9,2.8,2.7,26.3,2.7,26.3s3.3-8.8,8.1-4.5
				C54.8,45.8,39.1,94.3,39.1,94.3z"/>
		</g>
		<path id="Path_192" class="st11" d="M47.6,32.7c-5.6-3.1-7.4,2.4-7.4,2.4s4.4-16.2-4.7-19c-6-1.9-6,9.2-6,9.2S23.3-1.9,13.4,0.1
			l26.2,97C41.5,91.4,55.9,37.3,47.6,32.7z"/>
	</g>
	<g id="Group_107" transform="translate(0 100.111)">
		<g id="Group_106">
			<path id="Path_193" class="st12" d="M53.3,27.1c0,0-21.3,0.1-32.3-0.2c-2.8-0.1-5-0.2-5.9-0.3c-4.7-0.5,0.5-4.7,0.5-4.7
				S5.9,23,4.3,20.4s1.8-4.3,1.8-4.3s-6.7-3.4-6.2-5.6C1,6.4,8.7,9.5,8.7,9.5c-1-0.8-1.2-2.4-0.3-3.4C8.4,6,8.4,6,8.5,5.9
				C11.1,3,20,10.5,20,10.5s-3.7-7.2-1.7-8.9C28.4-7.6,53.3,27.1,53.3,27.1z"/>
		</g>
	</g>
	<path id="Path_194" class="st9" d="M29.1,165.2h55.8c7.3-6.5,11.4-15.7,11.3-25.4c0-4.7-1.1-9.3-3.2-13.5L21,127
		c-2,4.4-3.1,9.2-3,14C18.2,150.3,22.2,159,29.1,165.2z"/>
</g>
<g id="Group_109" transform="translate(328.155 75.342)">
	<path id="Path_195" class="st13" d="M12.6,6.2c2.1-0.6,4.4-0.2,6.2,1.1c2.5,1.6,3.2,4.9,1.6,7.4c-0.1,0.1-0.2,0.3-0.3,0.4
		C18.1,18,13,19.6,4,18C-0.7,10.5-0.8,5.4,1.3,2.5C3.2-0.1,6.8-0.8,9.4,1C11.2,2.2,12.4,4.1,12.6,6.2z"/>
	<path id="Path_196" class="st17" d="M20.2,15.1c1.8-2.3,1.4-5.7-0.9-7.5c-0.1-0.1-0.3-0.2-0.4-0.3c-1.8-1.2-4.1-1.6-6.2-1.1
		C12.6,6.2,4,18,4,18C13,19.6,18.1,18,20.2,15.1z"/>
</g>
<path id="Path_197" class="st15" d="M289,133.7C277.6,159,270.5,171,270.5,171c-7.6,0.5-32,3.7-35.8,2.7c-1.5-0.4-4.9-2.4-6.4-2.8
	c-1.2-0.4-2.5-0.7-3.8-0.8c-0.3,0-9.1,2-9.9,2.6c-1.1,0.8-3.9,2.7-3.7,3.7s5.1-2,5.1-2l2.2-0.8c-3,2-8.4,4.4-8,5.7
	c0.4,1.3,5.4-1.3,8.9-3c-3.1,1.9-7.3,5.6-6.7,6.4c0.5,0.7,5.3-3.6,9.5-4.3c1.6-0.3,2.7,1.4,3.8,1.8c0.9,0.4,1.9,0.6,2.9,0.7l5.8-0.1
	c1.3,0.4,27.2,3.7,42,1.5c5.8-0.9,17.4-19.5,19.6-24.5C301.4,145.2,291,129.2,289,133.7z"/>
<path id="Path_198" class="st11" d="M296.8,159.8c7.9-23.9,4.7-39.9-5-40.7c-5.9-0.5-11,20.6-14.2,35.8
	C280.8,156.5,289.8,160.3,296.8,159.8z"/>
<path id="Path_199" class="st6" d="M188.6,192.2c0,0,6.6-11,8.4-9.9s-3.5,8.3-3.5,8.3s4.2-9.3,5.6-7.9s-2,8.2-2,8.7s2.4-8.3,3.1-7.6
	s0.4,9.5,0.8,9.8s13.3-1.8,13.3-1.8s-13.6,5.9-16.5,5.1S188,194.6,188.6,192.2z"/>
</svg>
